{
	"asset":{
		"generator":"Khronos glTF Blender I/O v4.1.63",
		"version":"2.0"
	},
	"scene":0,
	"scenes":[
		{
			"name":"All plants",
			"nodes":[
				0,
				1,
				2,
				3
			]
		}
	],
	"nodes":[
		{
			"mesh":0,
			"name":"Flower1.001",
			"scale":[
				1.5010894536972046,
				1.5010894536972046,
				1.5010894536972046
			],
			"translation":[
				0.4276166260242462,
				0.010207988321781158,
				-0.419643759727478
			]
		},
		{
			"mesh":1,
			"name":"Flower2.001",
			"scale":[
				0.433077335357666,
				0.433077335357666,
				0.4330774247646332
			],
			"translation":[
				-0.4512031078338623,
				0.04263591393828392,
				0.4286540746688843
			]
		},
		{
			"mesh":2,
			"name":"Flower3.001",
			"scale":[
				1.5010894536972046,
				1.5010894536972046,
				1.5010894536972046
			],
			"translation":[
				-1.382584810256958,
				0.04126029461622238,
				0.4286540746688843
			]
		},
		{
			"mesh":3,
			"name":"Flower4.001",
			"rotation":[
				0,
				0.08864731341600418,
				0,
				0.9960631728172302
			],
			"scale":[
				1.2691344022750854,
				1.2609590291976929,
				1.4941836595535278
			],
			"translation":[
				1.297170877456665,
				0.09173404425382614,
				0.4286540746688843
			]
		}
	],
	"materials":[
		{
			"doubleSided":true,
			"name":"Stem.008",
			"pbrMetallicRoughness":{
				"baseColorFactor":[
					0.22360828518867493,
					1,
					0.03752851113677025,
					1
				],
				"metallicFactor":0,
				"roughnessFactor":0.5
			}
		},
		{
			"doubleSided":true,
			"name":"Seed.007",
			"pbrMetallicRoughness":{
				"baseColorFactor":[
					1,
					0.8361954689025879,
					0.638862133026123,
					1
				],
				"metallicFactor":0,
				"roughnessFactor":0.5
			}
		},
		{
			"doubleSided":true,
			"name":"Petal.007",
			"pbrMetallicRoughness":{
				"baseColorFactor":[
					0.9377937316894531,
					0.13894493877887726,
					0.2626543343067169,
					1
				],
				"metallicFactor":0,
				"roughnessFactor":0.3954545557498932
			}
		},
		{
			"doubleSided":true,
			"name":"Leaf.009",
			"pbrMetallicRoughness":{
				"baseColorFactor":[
					0.07306089997291565,
					0.330371230840683,
					0,
					1
				],
				"metallicFactor":0,
				"roughnessFactor":0.30000001192092896
			}
		},
		{
			"doubleSided":true,
			"name":"Stem.009",
			"pbrMetallicRoughness":{
				"baseColorFactor":[
					0.39689838886260986,
					1,
					0.05521497130393982,
					1
				],
				"metallicFactor":0,
				"roughnessFactor":0.5
			}
		},
		{
			"doubleSided":true,
			"name":"Seed.008",
			"pbrMetallicRoughness":{
				"baseColorFactor":[
					1,
					0.9643283486366272,
					0.12539809942245483,
					1
				],
				"metallicFactor":0,
				"roughnessFactor":0.5
			}
		},
		{
			"doubleSided":true,
			"name":"Petal.008",
			"pbrMetallicRoughness":{
				"baseColorFactor":[
					0.03416764736175537,
					0.4422558546066284,
					0.4932336211204529,
					1
				],
				"metallicFactor":0,
				"roughnessFactor":0.3954545557498932
			}
		},
		{
			"doubleSided":true,
			"name":"Leaf.010",
			"pbrMetallicRoughness":{
				"baseColorFactor":[
					0.05068482458591461,
					0.4988343119621277,
					0,
					1
				],
				"metallicFactor":0,
				"roughnessFactor":0.30000001192092896
			}
		},
		{
			"doubleSided":true,
			"name":"Stem.010",
			"pbrMetallicRoughness":{
				"baseColorFactor":[
					0.22360828518867493,
					1,
					0.03752851113677025,
					1
				],
				"metallicFactor":0,
				"roughnessFactor":0.5
			}
		},
		{
			"doubleSided":true,
			"name":"Seed.009",
			"pbrMetallicRoughness":{
				"baseColorFactor":[
					1,
					0.5493582487106323,
					0.13768713176250458,
					1
				],
				"metallicFactor":0,
				"roughnessFactor":0.5
			}
		},
		{
			"doubleSided":true,
			"name":"Petal.009",
			"pbrMetallicRoughness":{
				"baseColorFactor":[
					0.5109800696372986,
					0.1390109807252884,
					1,
					1
				],
				"metallicFactor":0,
				"roughnessFactor":0.3954545557498932
			}
		},
		{
			"doubleSided":true,
			"name":"Leaf.011",
			"pbrMetallicRoughness":{
				"baseColorFactor":[
					0.030479922890663147,
					0.49676012992858887,
					0,
					1
				],
				"metallicFactor":0,
				"roughnessFactor":0.30000001192092896
			}
		},
		{
			"doubleSided":true,
			"name":"Stem.011",
			"pbrMetallicRoughness":{
				"baseColorFactor":[
					0.22360828518867493,
					1,
					0.03752851113677025,
					1
				],
				"metallicFactor":0,
				"roughnessFactor":0.5
			}
		},
		{
			"doubleSided":true,
			"name":"Seed.010",
			"pbrMetallicRoughness":{
				"baseColorFactor":[
					0.36984071135520935,
					0.058557070791721344,
					0.03254730999469757,
					1
				],
				"metallicFactor":0,
				"roughnessFactor":0.5
			}
		},
		{
			"doubleSided":true,
			"name":"Petal.010",
			"pbrMetallicRoughness":{
				"baseColorFactor":[
					1,
					0.5408669114112854,
					0.006410269066691399,
					1
				],
				"metallicFactor":0,
				"roughnessFactor":0.3954545557498932
			}
		},
		{
			"doubleSided":true,
			"name":"Leaf.012",
			"pbrMetallicRoughness":{
				"baseColorFactor":[
					0.03737335652112961,
					0.499182790517807,
					0,
					1
				],
				"metallicFactor":0,
				"roughnessFactor":0.30000001192092896
			}
		}
	],
	"meshes":[
		{
			"name":"Flower1.001",
			"primitives":[
				{
					"attributes":{
						"POSITION":0,
						"NORMAL":1,
						"TEXCOORD_0":2,
						"TEXCOORD_1":3
					},
					"indices":4,
					"material":0
				},
				{
					"attributes":{
						"POSITION":5,
						"NORMAL":6,
						"TEXCOORD_0":7,
						"TEXCOORD_1":8
					},
					"indices":9,
					"material":1
				},
				{
					"attributes":{
						"POSITION":10,
						"NORMAL":11,
						"TEXCOORD_0":12,
						"TEXCOORD_1":13
					},
					"indices":14,
					"material":2
				},
				{
					"attributes":{
						"POSITION":15,
						"NORMAL":16,
						"TEXCOORD_0":17,
						"TEXCOORD_1":18
					},
					"indices":19,
					"material":3
				}
			]
		},
		{
			"name":"Flower2.001",
			"primitives":[
				{
					"attributes":{
						"POSITION":20,
						"NORMAL":21,
						"TEXCOORD_0":22,
						"TEXCOORD_1":23
					},
					"indices":24,
					"material":4
				},
				{
					"attributes":{
						"POSITION":25,
						"NORMAL":26,
						"TEXCOORD_0":27,
						"TEXCOORD_1":28
					},
					"indices":9,
					"material":5
				},
				{
					"attributes":{
						"POSITION":29,
						"NORMAL":30,
						"TEXCOORD_0":31,
						"TEXCOORD_1":32
					},
					"indices":33,
					"material":6
				},
				{
					"attributes":{
						"POSITION":34,
						"NORMAL":35,
						"TEXCOORD_0":36,
						"TEXCOORD_1":37
					},
					"indices":38,
					"material":7
				}
			]
		},
		{
			"name":"Flower3.001",
			"primitives":[
				{
					"attributes":{
						"POSITION":39,
						"NORMAL":40,
						"TEXCOORD_0":41,
						"TEXCOORD_1":42
					},
					"indices":4,
					"material":8
				},
				{
					"attributes":{
						"POSITION":43,
						"NORMAL":44,
						"TEXCOORD_0":45,
						"TEXCOORD_1":46
					},
					"indices":9,
					"material":9
				},
				{
					"attributes":{
						"POSITION":47,
						"NORMAL":48,
						"TEXCOORD_0":49,
						"TEXCOORD_1":50
					},
					"indices":33,
					"material":10
				},
				{
					"attributes":{
						"POSITION":51,
						"NORMAL":52,
						"TEXCOORD_0":53,
						"TEXCOORD_1":54
					},
					"indices":55,
					"material":11
				}
			]
		},
		{
			"name":"Flower4.001",
			"primitives":[
				{
					"attributes":{
						"POSITION":56,
						"NORMAL":57,
						"TEXCOORD_0":58,
						"TEXCOORD_1":59
					},
					"indices":4,
					"material":12
				},
				{
					"attributes":{
						"POSITION":60,
						"NORMAL":61,
						"TEXCOORD_0":62,
						"TEXCOORD_1":63
					},
					"indices":9,
					"material":13
				},
				{
					"attributes":{
						"POSITION":64,
						"NORMAL":65,
						"TEXCOORD_0":66,
						"TEXCOORD_1":67
					},
					"indices":33,
					"material":14
				},
				{
					"attributes":{
						"POSITION":68,
						"NORMAL":69,
						"TEXCOORD_0":70,
						"TEXCOORD_1":71
					},
					"indices":55,
					"material":15
				}
			]
		}
	],
	"accessors":[
		{
			"bufferView":0,
			"componentType":5126,
			"count":100,
			"max":[
				0.047979168593883514,
				0.8327085375785828,
				0.03647606074810028
			],
			"min":[
				-0.05800103023648262,
				-0.003288185689598322,
				-0.06757684051990509
			],
			"type":"VEC3"
		},
		{
			"bufferView":1,
			"componentType":5126,
			"count":100,
			"type":"VEC3"
		},
		{
			"bufferView":2,
			"componentType":5126,
			"count":100,
			"type":"VEC2"
		},
		{
			"bufferView":3,
			"componentType":5126,
			"count":100,
			"type":"VEC2"
		},
		{
			"bufferView":4,
			"componentType":5123,
			"count":552,
			"type":"SCALAR"
		},
		{
			"bufferView":5,
			"componentType":5126,
			"count":25,
			"max":[
				0.07934489846229553,
				0.88516765832901,
				0.08575339615345001
			],
			"min":[
				-0.08590102195739746,
				0.758204460144043,
				-0.01924295350909233
			],
			"type":"VEC3"
		},
		{
			"bufferView":6,
			"componentType":5126,
			"count":25,
			"type":"VEC3"
		},
		{
			"bufferView":7,
			"componentType":5126,
			"count":25,
			"type":"VEC2"
		},
		{
			"bufferView":8,
			"componentType":5126,
			"count":25,
			"type":"VEC2"
		},
		{
			"bufferView":9,
			"componentType":5123,
			"count":120,
			"type":"SCALAR"
		},
		{
			"bufferView":10,
			"componentType":5126,
			"count":2040,
			"max":[
				0.25170618295669556,
				0.9981505870819092,
				0.1731836497783661
			],
			"min":[
				-0.25231271982192993,
				0.6187043786048889,
				-0.13433542847633362
			],
			"type":"VEC3"
		},
		{
			"bufferView":11,
			"componentType":5126,
			"count":2040,
			"type":"VEC3"
		},
		{
			"bufferView":12,
			"componentType":5126,
			"count":2040,
			"type":"VEC2"
		},
		{
			"bufferView":13,
			"componentType":5126,
			"count":2040,
			"type":"VEC2"
		},
		{
			"bufferView":14,
			"componentType":5123,
			"count":7776,
			"type":"SCALAR"
		},
		{
			"bufferView":15,
			"componentType":5126,
			"count":428,
			"max":[
				0.30345243215560913,
				0.5712180733680725,
				0.09743135422468185
			],
			"min":[
				-0.36476850509643555,
				0.15228047966957092,
				-0.102435402572155
			],
			"type":"VEC3"
		},
		{
			"bufferView":16,
			"componentType":5126,
			"count":428,
			"type":"VEC3"
		},
		{
			"bufferView":17,
			"componentType":5126,
			"count":428,
			"type":"VEC2"
		},
		{
			"bufferView":18,
			"componentType":5126,
			"count":428,
			"type":"VEC2"
		},
		{
			"bufferView":19,
			"componentType":5123,
			"count":1728,
			"type":"SCALAR"
		},
		{
			"bufferView":20,
			"componentType":5126,
			"count":111,
			"max":[
				0.07895338535308838,
				2.820612907409668,
				0.014550331979990005
			],
			"min":[
				-0.5409204363822937,
				0.32153645157814026,
				-0.21261654794216156
			],
			"type":"VEC3"
		},
		{
			"bufferView":21,
			"componentType":5126,
			"count":111,
			"type":"VEC3"
		},
		{
			"bufferView":22,
			"componentType":5126,
			"count":111,
			"type":"VEC2"
		},
		{
			"bufferView":23,
			"componentType":5126,
			"count":111,
			"type":"VEC2"
		},
		{
			"bufferView":24,
			"componentType":5123,
			"count":564,
			"type":"SCALAR"
		},
		{
			"bufferView":25,
			"componentType":5126,
			"count":25,
			"max":[
				-0.3131779432296753,
				2.989210605621338,
				0.1492384970188141
			],
			"min":[
				-0.6805937886238098,
				2.6215877532958984,
				-0.011730377562344074
			],
			"type":"VEC3"
		},
		{
			"bufferView":26,
			"componentType":5126,
			"count":25,
			"type":"VEC3"
		},
		{
			"bufferView":27,
			"componentType":5126,
			"count":25,
			"type":"VEC2"
		},
		{
			"bufferView":28,
			"componentType":5126,
			"count":25,
			"type":"VEC2"
		},
		{
			"bufferView":29,
			"componentType":5126,
			"count":850,
			"max":[
				0.19901494681835175,
				3.4793877601623535,
				0.2826193869113922
			],
			"min":[
				-1.2464256286621094,
				2.077960968017578,
				-0.14852182567119598
			],
			"type":"VEC3"
		},
		{
			"bufferView":30,
			"componentType":5126,
			"count":850,
			"type":"VEC3"
		},
		{
			"bufferView":31,
			"componentType":5126,
			"count":850,
			"type":"VEC2"
		},
		{
			"bufferView":32,
			"componentType":5126,
			"count":850,
			"type":"VEC2"
		},
		{
			"bufferView":33,
			"componentType":5123,
			"count":3240,
			"type":"SCALAR"
		},
		{
			"bufferView":34,
			"componentType":5126,
			"count":642,
			"max":[
				0.5714567303657532,
				1.9952059984207153,
				0.7781431674957275
			],
			"min":[
				-0.5733955502510071,
				-0.06695067882537842,
				-0.8315253257751465
			],
			"type":"VEC3"
		},
		{
			"bufferView":35,
			"componentType":5126,
			"count":642,
			"type":"VEC3"
		},
		{
			"bufferView":36,
			"componentType":5126,
			"count":642,
			"type":"VEC2"
		},
		{
			"bufferView":37,
			"componentType":5126,
			"count":642,
			"type":"VEC2"
		},
		{
			"bufferView":38,
			"componentType":5123,
			"count":2592,
			"type":"SCALAR"
		},
		{
			"bufferView":39,
			"componentType":5126,
			"count":100,
			"max":[
				0.017555054277181625,
				0.6142103672027588,
				0.12283758819103241
			],
			"min":[
				-0.09920953214168549,
				-2.771616935959287e-09,
				-0.02027067355811596
			],
			"type":"VEC3"
		},
		{
			"bufferView":40,
			"componentType":5126,
			"count":100,
			"type":"VEC3"
		},
		{
			"bufferView":41,
			"componentType":5126,
			"count":100,
			"type":"VEC2"
		},
		{
			"bufferView":42,
			"componentType":5126,
			"count":100,
			"type":"VEC2"
		},
		{
			"bufferView":43,
			"componentType":5126,
			"count":25,
			"max":[
				0.00872698426246643,
				0.6336756348609924,
				0.14536172151565552
			],
			"min":[
				-0.10235133767127991,
				0.5448453426361084,
				0.061437856405973434
			],
			"type":"VEC3"
		},
		{
			"bufferView":44,
			"componentType":5126,
			"count":25,
			"type":"VEC3"
		},
		{
			"bufferView":45,
			"componentType":5126,
			"count":25,
			"type":"VEC2"
		},
		{
			"bufferView":46,
			"componentType":5126,
			"count":25,
			"type":"VEC2"
		},
		{
			"bufferView":47,
			"componentType":5126,
			"count":850,
			"max":[
				0.1925799697637558,
				0.7633880376815796,
				0.25652241706848145
			],
			"min":[
				-0.28706786036491394,
				0.42170676589012146,
				-0.058590278029441833
			],
			"type":"VEC3"
		},
		{
			"bufferView":48,
			"componentType":5126,
			"count":850,
			"type":"VEC3"
		},
		{
			"bufferView":49,
			"componentType":5126,
			"count":850,
			"type":"VEC2"
		},
		{
			"bufferView":50,
			"componentType":5126,
			"count":850,
			"type":"VEC2"
		},
		{
			"bufferView":51,
			"componentType":5126,
			"count":428,
			"max":[
				0.2438739836215973,
				0.4455350637435913,
				0.09159765392541885
			],
			"min":[
				-0.2611088752746582,
				0.2614389657974243,
				-0.06781699508428574
			],
			"type":"VEC3"
		},
		{
			"bufferView":52,
			"componentType":5126,
			"count":428,
			"type":"VEC3"
		},
		{
			"bufferView":53,
			"componentType":5126,
			"count":428,
			"type":"VEC2"
		},
		{
			"bufferView":54,
			"componentType":5126,
			"count":428,
			"type":"VEC2"
		},
		{
			"bufferView":55,
			"componentType":5123,
			"count":1728,
			"type":"SCALAR"
		},
		{
			"bufferView":56,
			"componentType":5126,
			"count":100,
			"max":[
				0.22201605141162872,
				0.6939185261726379,
				0.12356671690940857
			],
			"min":[
				-0.052020784467458725,
				-2.6201230074462956e-09,
				-0.02027067355811596
			],
			"type":"VEC3"
		},
		{
			"bufferView":57,
			"componentType":5126,
			"count":100,
			"type":"VEC3"
		},
		{
			"bufferView":58,
			"componentType":5126,
			"count":100,
			"type":"VEC2"
		},
		{
			"bufferView":59,
			"componentType":5126,
			"count":100,
			"type":"VEC2"
		},
		{
			"bufferView":60,
			"componentType":5126,
			"count":25,
			"max":[
				0.26845282316207886,
				0.741531252861023,
				0.18684430420398712
			],
			"min":[
				0.0659174919128418,
				0.539071261882782,
				0.13824181258678436
			],
			"type":"VEC3"
		},
		{
			"bufferView":61,
			"componentType":5126,
			"count":25,
			"type":"VEC3"
		},
		{
			"bufferView":62,
			"componentType":5126,
			"count":25,
			"type":"VEC2"
		},
		{
			"bufferView":63,
			"componentType":5126,
			"count":25,
			"type":"VEC2"
		},
		{
			"bufferView":64,
			"componentType":5126,
			"count":850,
			"max":[
				0.39542654156684875,
				0.8909648656845093,
				0.1779780387878418
			],
			"min":[
				-0.07534059882164001,
				0.4129258096218109,
				0.1042376235127449
			],
			"type":"VEC3"
		},
		{
			"bufferView":65,
			"componentType":5126,
			"count":850,
			"type":"VEC3"
		},
		{
			"bufferView":66,
			"componentType":5126,
			"count":850,
			"type":"VEC2"
		},
		{
			"bufferView":67,
			"componentType":5126,
			"count":850,
			"type":"VEC2"
		},
		{
			"bufferView":68,
			"componentType":5126,
			"count":428,
			"max":[
				0.2801852822303772,
				0.46305763721466064,
				0.06188133358955383
			],
			"min":[
				-0.256278932094574,
				0.14986872673034668,
				-0.029646534472703934
			],
			"type":"VEC3"
		},
		{
			"bufferView":69,
			"componentType":5126,
			"count":428,
			"type":"VEC3"
		},
		{
			"bufferView":70,
			"componentType":5126,
			"count":428,
			"type":"VEC2"
		},
		{
			"bufferView":71,
			"componentType":5126,
			"count":428,
			"type":"VEC2"
		}
	],
	"bufferViews":[
		{
			"buffer":0,
			"byteLength":1200,
			"byteOffset":0,
			"target":34962
		},
		{
			"buffer":0,
			"byteLength":1200,
			"byteOffset":1200,
			"target":34962
		},
		{
			"buffer":0,
			"byteLength":800,
			"byteOffset":2400,
			"target":34962
		},
		{
			"buffer":0,
			"byteLength":800,
			"byteOffset":3200,
			"target":34962
		},
		{
			"buffer":0,
			"byteLength":1104,
			"byteOffset":4000,
			"target":34963
		},
		{
			"buffer":0,
			"byteLength":300,
			"byteOffset":5104,
			"target":34962
		},
		{
			"buffer":0,
			"byteLength":300,
			"byteOffset":5404,
			"target":34962
		},
		{
			"buffer":0,
			"byteLength":200,
			"byteOffset":5704,
			"target":34962
		},
		{
			"buffer":0,
			"byteLength":200,
			"byteOffset":5904,
			"target":34962
		},
		{
			"buffer":0,
			"byteLength":240,
			"byteOffset":6104,
			"target":34963
		},
		{
			"buffer":0,
			"byteLength":24480,
			"byteOffset":6344,
			"target":34962
		},
		{
			"buffer":0,
			"byteLength":24480,
			"byteOffset":30824,
			"target":34962
		},
		{
			"buffer":0,
			"byteLength":16320,
			"byteOffset":55304,
			"target":34962
		},
		{
			"buffer":0,
			"byteLength":16320,
			"byteOffset":71624,
			"target":34962
		},
		{
			"buffer":0,
			"byteLength":15552,
			"byteOffset":87944,
			"target":34963
		},
		{
			"buffer":0,
			"byteLength":5136,
			"byteOffset":103496,
			"target":34962
		},
		{
			"buffer":0,
			"byteLength":5136,
			"byteOffset":108632,
			"target":34962
		},
		{
			"buffer":0,
			"byteLength":3424,
			"byteOffset":113768,
			"target":34962
		},
		{
			"buffer":0,
			"byteLength":3424,
			"byteOffset":117192,
			"target":34962
		},
		{
			"buffer":0,
			"byteLength":3456,
			"byteOffset":120616,
			"target":34963
		},
		{
			"buffer":0,
			"byteLength":1332,
			"byteOffset":124072,
			"target":34962
		},
		{
			"buffer":0,
			"byteLength":1332,
			"byteOffset":125404,
			"target":34962
		},
		{
			"buffer":0,
			"byteLength":888,
			"byteOffset":126736,
			"target":34962
		},
		{
			"buffer":0,
			"byteLength":888,
			"byteOffset":127624,
			"target":34962
		},
		{
			"buffer":0,
			"byteLength":1128,
			"byteOffset":128512,
			"target":34963
		},
		{
			"buffer":0,
			"byteLength":300,
			"byteOffset":129640,
			"target":34962
		},
		{
			"buffer":0,
			"byteLength":300,
			"byteOffset":129940,
			"target":34962
		},
		{
			"buffer":0,
			"byteLength":200,
			"byteOffset":130240,
			"target":34962
		},
		{
			"buffer":0,
			"byteLength":200,
			"byteOffset":130440,
			"target":34962
		},
		{
			"buffer":0,
			"byteLength":10200,
			"byteOffset":130640,
			"target":34962
		},
		{
			"buffer":0,
			"byteLength":10200,
			"byteOffset":140840,
			"target":34962
		},
		{
			"buffer":0,
			"byteLength":6800,
			"byteOffset":151040,
			"target":34962
		},
		{
			"buffer":0,
			"byteLength":6800,
			"byteOffset":157840,
			"target":34962
		},
		{
			"buffer":0,
			"byteLength":6480,
			"byteOffset":164640,
			"target":34963
		},
		{
			"buffer":0,
			"byteLength":7704,
			"byteOffset":171120,
			"target":34962
		},
		{
			"buffer":0,
			"byteLength":7704,
			"byteOffset":178824,
			"target":34962
		},
		{
			"buffer":0,
			"byteLength":5136,
			"byteOffset":186528,
			"target":34962
		},
		{
			"buffer":0,
			"byteLength":5136,
			"byteOffset":191664,
			"target":34962
		},
		{
			"buffer":0,
			"byteLength":5184,
			"byteOffset":196800,
			"target":34963
		},
		{
			"buffer":0,
			"byteLength":1200,
			"byteOffset":201984,
			"target":34962
		},
		{
			"buffer":0,
			"byteLength":1200,
			"byteOffset":203184,
			"target":34962
		},
		{
			"buffer":0,
			"byteLength":800,
			"byteOffset":204384,
			"target":34962
		},
		{
			"buffer":0,
			"byteLength":800,
			"byteOffset":205184,
			"target":34962
		},
		{
			"buffer":0,
			"byteLength":300,
			"byteOffset":205984,
			"target":34962
		},
		{
			"buffer":0,
			"byteLength":300,
			"byteOffset":206284,
			"target":34962
		},
		{
			"buffer":0,
			"byteLength":200,
			"byteOffset":206584,
			"target":34962
		},
		{
			"buffer":0,
			"byteLength":200,
			"byteOffset":206784,
			"target":34962
		},
		{
			"buffer":0,
			"byteLength":10200,
			"byteOffset":206984,
			"target":34962
		},
		{
			"buffer":0,
			"byteLength":10200,
			"byteOffset":217184,
			"target":34962
		},
		{
			"buffer":0,
			"byteLength":6800,
			"byteOffset":227384,
			"target":34962
		},
		{
			"buffer":0,
			"byteLength":6800,
			"byteOffset":234184,
			"target":34962
		},
		{
			"buffer":0,
			"byteLength":5136,
			"byteOffset":240984,
			"target":34962
		},
		{
			"buffer":0,
			"byteLength":5136,
			"byteOffset":246120,
			"target":34962
		},
		{
			"buffer":0,
			"byteLength":3424,
			"byteOffset":251256,
			"target":34962
		},
		{
			"buffer":0,
			"byteLength":3424,
			"byteOffset":254680,
			"target":34962
		},
		{
			"buffer":0,
			"byteLength":3456,
			"byteOffset":258104,
			"target":34963
		},
		{
			"buffer":0,
			"byteLength":1200,
			"byteOffset":261560,
			"target":34962
		},
		{
			"buffer":0,
			"byteLength":1200,
			"byteOffset":262760,
			"target":34962
		},
		{
			"buffer":0,
			"byteLength":800,
			"byteOffset":263960,
			"target":34962
		},
		{
			"buffer":0,
			"byteLength":800,
			"byteOffset":264760,
			"target":34962
		},
		{
			"buffer":0,
			"byteLength":300,
			"byteOffset":265560,
			"target":34962
		},
		{
			"buffer":0,
			"byteLength":300,
			"byteOffset":265860,
			"target":34962
		},
		{
			"buffer":0,
			"byteLength":200,
			"byteOffset":266160,
			"target":34962
		},
		{
			"buffer":0,
			"byteLength":200,
			"byteOffset":266360,
			"target":34962
		},
		{
			"buffer":0,
			"byteLength":10200,
			"byteOffset":266560,
			"target":34962
		},
		{
			"buffer":0,
			"byteLength":10200,
			"byteOffset":276760,
			"target":34962
		},
		{
			"buffer":0,
			"byteLength":6800,
			"byteOffset":286960,
			"target":34962
		},
		{
			"buffer":0,
			"byteLength":6800,
			"byteOffset":293760,
			"target":34962
		},
		{
			"buffer":0,
			"byteLength":5136,
			"byteOffset":300560,
			"target":34962
		},
		{
			"buffer":0,
			"byteLength":5136,
			"byteOffset":305696,
			"target":34962
		},
		{
			"buffer":0,
			"byteLength":3424,
			"byteOffset":310832,
			"target":34962
		},
		{
			"buffer":0,
			"byteLength":3424,
			"byteOffset":314256,
			"target":34962
		}
	],
	"buffers":[
		{
			"byteLength":317680,
			"uri":"Habitat.bin"
		}
	]
}
