<?xml version="1.0" encoding="UTF-8"?>
<svg width="1200pt" height="1200pt" version="1.1" viewBox="0 0 1200 1200" xmlns="http://www.w3.org/2000/svg">
 <g fill="#70d258">
  <path d="m641.86 515.86c1.9219-4.9219-0.60938-10.547-5.625-12.375-4.9219-1.9219-10.547 0.60938-12.375 5.625-1.9219 4.9219 0.60938 10.547 5.625 12.375 4.9688 1.8281 10.594-0.70312 12.375-5.625z"/>
  <path d="m684.14 641.86c4.9219 1.9219 10.547-0.60938 12.375-5.625 1.9219-4.9219-0.60938-10.547-5.625-12.375-4.9219-1.9219-10.547 0.60938-12.375 5.625-1.8281 4.9688 0.70312 10.594 5.625 12.375z"/>
  <path d="m558.14 684.14c-1.9219 4.9219 0.60938 10.547 5.625 12.375 4.9219 1.9219 10.547-0.60938 12.375-5.625 1.9219-4.9219-0.60938-10.547-5.625-12.375-4.9688-1.8281-10.594 0.70312-12.375 5.625z"/>
  <path d="m521.53 570.47c1.9219-4.9219-0.60938-10.547-5.625-12.375-4.9219-1.9219-10.547 0.60938-12.375 5.625-1.9219 4.9219 0.60938 10.547 5.625 12.375 4.9219 1.8281 10.453-0.70312 12.375-5.625z"/>
  <path d="m689.16 570.14c4.7812-2.1562 6.9375-7.9219 4.7812-12.703s-7.9219-6.9375-12.703-4.7812-6.9375 7.9219-4.7812 12.703c2.1562 4.875 7.7812 7.0312 12.703 4.7812z"/>
  <path d="m634.69 676.45c-4.7812 2.1562-6.9375 7.9219-4.7812 12.703s7.9219 6.9375 12.703 4.7812 6.9375-7.9219 4.7812-12.703-7.9219-7.0781-12.703-4.7812z"/>
  <path d="m518.86 647.39c4.7812-2.1562 6.9375-7.9219 4.7812-12.703s-7.9219-6.9375-12.703-4.7812-6.9375 7.9219-4.7812 12.703 7.7812 6.9375 12.703 4.7812z"/>
  <path d="m565.31 523.55c4.7812-2.1562 6.9375-7.9219 4.7812-12.703s-7.9219-6.9375-12.703-4.7812-6.9375 7.9219-4.7812 12.703c2.25 4.9219 7.9219 7.0781 12.703 4.7812z"/>
  <path d="m600 471.24s121.45-98.766 121.45-220.69c0-121.78-121.45-220.55-121.45-220.55s-121.45 98.766-121.45 220.69c0 121.78 121.45 220.55 121.45 220.55z"/>
  <path d="m600 728.76s-121.45 98.766-121.45 220.69c0 121.78 121.45 220.55 121.45 220.55s121.45-98.766 121.45-220.69c0-121.78-121.45-220.55-121.45-220.55z"/>
  <path d="m471.24 600s-98.766-121.45-220.69-121.45-220.55 121.45-220.55 121.45 98.766 121.45 220.69 121.45c121.93 0 220.55-121.45 220.55-121.45z"/>
  <path d="m949.31 478.55c-121.78 0-220.55 121.45-220.55 121.45s98.766 121.45 220.69 121.45 220.55-121.45 220.55-121.45-98.766-121.45-220.69-121.45z"/>
  <path d="m509.06 690.94s-155.76-16.078-241.92 70.078c-86.156 86.156-70.078 241.92-70.078 241.92s155.76 16.078 241.92-70.078c86.156-86.156 70.078-241.92 70.078-241.92z"/>
  <path d="m690.94 509.06s155.76 16.078 241.92-70.078c86.156-86.156 70.078-241.92 70.078-241.92s-155.76-16.078-241.92 70.078c-86.016 86.156-70.078 241.92-70.078 241.92z"/>
  <path d="m690.94 690.94s-16.078 155.76 70.078 241.92c86.156 86.156 241.92 70.078 241.92 70.078s16.078-155.76-70.078-241.92c-86.156-86.156-241.92-70.078-241.92-70.078z"/>
  <path d="m509.06 509.06s16.078-155.76-70.078-241.92c-86.156-86.156-241.92-70.078-241.92-70.078s-16.078 155.76 70.078 241.92c86.156 86.016 241.92 70.078 241.92 70.078z"/>
  <path d="m648.24 600c0 64.312-96.469 64.312-96.469 0s96.469-64.312 96.469 0"/>
 </g>
</svg>
