<?xml version="1.0" encoding="UTF-8"?>
<svg width="1200pt" height="1200pt" version="1.1" viewBox="0 0 1200 1200" xmlns="http://www.w3.org/2000/svg">
 <path d="m600 60c-143.22 0-280.57 56.895-381.84 158.16-101.27 101.27-158.16 238.62-158.16 381.84s56.895 280.57 158.16 381.84c101.27 101.27 238.62 158.16 381.84 158.16s280.57-56.895 381.84-158.16c101.27-101.27 158.16-238.62 158.16-381.84 0-94.789-24.953-187.91-72.348-270-47.395-82.09-115.56-150.26-197.65-197.65-82.09-47.395-175.21-72.348-270-72.348zm-300 629.88c-32.152 0-61.867-17.152-77.941-45-16.078-27.844-16.078-62.152 0-90 16.074-27.844 45.789-45 77.941-45s61.867 17.156 77.941 45c16.078 27.848 16.078 62.156 0 90-16.074 27.848-45.789 45-77.941 45zm300 0c-23.836 0-46.699-9.4688-63.555-26.324-16.855-16.855-26.324-39.719-26.324-63.555s9.4688-46.699 26.324-63.555c16.855-16.855 39.719-26.324 63.555-26.324s46.699 9.4688 63.555 26.324c16.855 16.855 26.324 39.719 26.324 63.555-0.03125 23.828-9.5117 46.672-26.359 63.52-16.848 16.848-39.691 26.328-63.52 26.359zm300 0c-32.152 0-61.867-17.152-77.941-45-16.078-27.844-16.078-62.152 0-90 16.074-27.844 45.789-45 77.941-45s61.867 17.156 77.941 45c16.078 27.848 16.078 62.156 0 90-16.074 27.848-45.789 45-77.941 45z" fill="#FFFFFF"/>
</svg>
